<svg width="20" height="25" viewBox="0 0 20 25" fill="none" xmlns="http://www.w3.org/2000/svg">
<path d="M10 12.5C11.0384 12.5 12.0534 12.1408 12.9167 11.4678C13.7801 10.7947 14.453 9.83814 14.8504 8.71894C15.2477 7.59974 15.3517 6.36821 15.1491 5.18007C14.9466 3.99194 14.4465 2.90057 13.7123 2.04397C12.9781 1.18738 12.0426 0.604027 11.0242 0.367693C10.0058 0.131358 8.95022 0.252654 7.99091 0.716241C7.0316 1.17983 6.21166 1.96488 5.63478 2.97213C5.05791 3.97939 4.75 5.16359 4.75 6.375C4.75 7.99945 5.30312 9.55737 6.28769 10.706C7.27226 11.8547 8.60761 12.5 10 12.5ZM10 14.25C6.74594 14.25 0.25 16.595 0.25 21.25V24.75H19.75V21.25C19.75 16.595 13.2541 14.25 10 14.25Z" fill="#0D8754"/>
</svg>
