<svg width="28" height="27" viewBox="0 0 28 27" fill="none" xmlns="http://www.w3.org/2000/svg">
<path d="M26.7295 13.2951L14.6621 1.23655C14.5752 1.14949 14.472 1.08042 14.3584 1.0333C14.2448 0.986171 14.123 0.961914 14 0.961914C13.877 0.961914 13.7552 0.986171 13.6416 1.0333C13.528 1.08042 13.4248 1.14949 13.3379 1.23655L1.27051 13.2951C0.918945 13.6467 0.719727 14.1242 0.719727 14.6223C0.719727 15.6565 1.56055 16.4973 2.59473 16.4973H3.86621V25.1018C3.86621 25.6203 4.28516 26.0393 4.80371 26.0393H12.125V19.4768H15.4062V26.0393H23.1963C23.7148 26.0393 24.1338 25.6203 24.1338 25.1018V16.4973H25.4053C25.9033 16.4973 26.3809 16.301 26.7324 15.9465C27.4619 15.2141 27.4619 14.0276 26.7295 13.2951Z" fill="#0D8754"/>
</svg>
