<svg width="23" height="24" viewBox="0 0 23 24" fill="none" xmlns="http://www.w3.org/2000/svg">
<path d="M11.5 23.5L9.8325 21.8706C7.89667 19.9696 6.29625 18.3297 5.03125 16.951C3.76625 15.5722 2.76 14.3343 2.0125 13.2371C1.265 12.14 0.7429 11.1322 0.4462 10.2139C0.1495 9.29557 0.000766667 8.35551 0 7.39373C0 5.43006 0.60375 3.79019 1.81125 2.47411C3.01875 1.15804 4.52333 0.5 6.325 0.5C7.32167 0.5 8.27042 0.729791 9.17125 1.18937C10.0721 1.64896 10.8483 2.29655 11.5 3.13215C12.1517 2.29655 12.9279 1.64896 13.8287 1.18937C14.7296 0.729791 15.6783 0.5 16.675 0.5C18.4767 0.5 19.9812 1.15804 21.1887 2.47411C22.3962 3.79019 23 5.43006 23 7.39373C23 8.35468 22.8517 9.29473 22.555 10.2139C22.2583 11.1331 21.7358 12.1408 20.9875 13.2371C20.2392 14.3334 19.233 15.5714 17.9688 16.951C16.7045 18.3305 15.1041 19.9704 13.1675 21.8706L11.5 23.5Z" fill="#0D8754"/>
</svg>
