<svg width="26" height="25" viewBox="0 0 26 25" fill="none" xmlns="http://www.w3.org/2000/svg">
<path d="M20.25 20C18.8625 20 17.75 21.1125 17.75 22.5C17.75 23.163 18.0134 23.7989 18.4822 24.2678C18.9511 24.7366 19.587 25 20.25 25C20.913 25 21.5489 24.7366 22.0178 24.2678C22.4866 23.7989 22.75 23.163 22.75 22.5C22.75 21.837 22.4866 21.2011 22.0178 20.7322C21.5489 20.2634 20.913 20 20.25 20ZM0.25 0V2.5H2.75L7.25 11.9875L5.55 15.05C5.3625 15.4 5.25 15.8125 5.25 16.25C5.25 16.913 5.51339 17.5489 5.98223 18.0178C6.45107 18.4866 7.08696 18.75 7.75 18.75H22.75V16.25H8.275C8.19212 16.25 8.11263 16.2171 8.05403 16.1585C7.99542 16.0999 7.9625 16.0204 7.9625 15.9375C7.9625 15.875 7.975 15.825 8 15.7875L9.125 13.75H18.4375C19.375 13.75 20.2 13.225 20.625 12.4625L25.1 4.375C25.1875 4.175 25.25 3.9625 25.25 3.75C25.25 3.41848 25.1183 3.10054 24.8839 2.86612C24.6495 2.6317 24.3315 2.5 24 2.5H5.5125L4.3375 0M7.75 20C6.3625 20 5.25 21.1125 5.25 22.5C5.25 23.163 5.51339 23.7989 5.98223 24.2678C6.45107 24.7366 7.08696 25 7.75 25C8.41304 25 9.04893 24.7366 9.51777 24.2678C9.98661 23.7989 10.25 23.163 10.25 22.5C10.25 21.837 9.98661 21.2011 9.51777 20.7322C9.04893 20.2634 8.41304 20 7.75 20Z" fill="#0D8754"/>
</svg>
