<svg width="26" height="26" viewBox="0 0 26 26" fill="none" xmlns="http://www.w3.org/2000/svg">
<g clip-path="url(#clip0_26_560)">
<path d="M18.6874 6.50002H18.692H18.6874ZM24.3521 4.87502H19.7279L20.1809 3.06416L22.1268 2.40147C22.5407 2.2608 22.787 1.82104 22.6677 1.40057C22.6373 1.2948 22.5858 1.1963 22.5162 1.11104C22.4466 1.02579 22.3604 0.955552 22.2629 0.9046C22.1654 0.853647 22.0585 0.823039 21.9488 0.814631C21.8391 0.806223 21.7288 0.820191 21.6246 0.855688L19.2379 1.66819C19.1094 1.71202 18.9939 1.78736 18.902 1.88734C18.8101 1.98732 18.7447 2.10873 18.7118 2.24049L18.0532 4.87502H11.3978C10.9606 4.87502 10.5853 5.2112 10.5634 5.64842C10.5581 5.75828 10.5752 5.86807 10.6136 5.97114C10.652 6.0742 10.7109 6.1684 10.7868 6.24803C10.8627 6.32765 10.9539 6.39104 11.055 6.43436C11.1561 6.47767 11.2649 6.50001 11.3749 6.50002H11.5146L11.5654 6.93979C11.5773 7.04249 11.6266 7.13721 11.7038 7.20593C11.7811 7.27466 11.8809 7.31259 11.9843 7.31252C13.9648 7.31252 15.7248 7.86604 17.0685 8.91315C17.8159 9.489 18.4217 10.2281 18.8398 11.0739C19.0738 11.5497 19.2465 12.0532 19.3537 12.5724C19.375 12.6736 19.4349 12.7625 19.5207 12.8203C20.2115 13.289 20.7211 13.98 20.9648 14.7784C21.2085 15.5769 21.1717 16.4347 20.8604 17.2093C20.8241 17.2989 20.8214 17.3986 20.8527 17.4901C21.0326 18.0056 21.1246 18.5477 21.1249 19.0938C21.1249 20.2282 20.739 21.3094 20.0382 22.1381C19.6409 22.6111 19.1411 22.9875 18.5767 23.2385C18.4791 23.2816 18.4023 23.3613 18.3629 23.4605C18.152 24.0099 17.8542 24.5218 17.4809 24.9768C17.4653 24.9952 17.4554 25.0177 17.4522 25.0417C17.4489 25.0656 17.4526 25.0899 17.4627 25.1118C17.4729 25.1337 17.489 25.1523 17.5093 25.1653C17.5296 25.1784 17.5532 25.1854 17.5773 25.1855H20.0763C20.6881 25.183 21.2769 24.9515 21.7266 24.5367C22.1763 24.1218 22.4544 23.5537 22.5062 22.944L24.2429 6.50002H24.3749C24.485 6.50015 24.5939 6.47791 24.6952 6.43466C24.7964 6.3914 24.8877 6.32803 24.9637 6.24839C25.0397 6.16876 25.0987 6.07451 25.1372 5.97137C25.1756 5.86824 25.1927 5.75837 25.1874 5.64842C25.1661 5.2112 24.7893 4.87502 24.3521 4.87502Z" fill="#773607" fill-opacity="0.77"/>
<path d="M5.51942 16.25C5.67966 16.2492 5.83847 16.2803 5.98665 16.3413C6.13483 16.4023 6.26944 16.4921 6.3827 16.6055L7.17031 17.3931C7.18918 17.412 7.21158 17.427 7.23624 17.4372C7.2609 17.4474 7.28733 17.4527 7.31402 17.4527C7.34072 17.4527 7.36715 17.4474 7.39181 17.4372C7.41647 17.427 7.43887 17.412 7.45774 17.3931L8.24383 16.6055C8.35708 16.4921 8.49169 16.4023 8.63987 16.3413C8.78805 16.2803 8.94686 16.2492 9.10711 16.25H19.0897C19.143 16.2505 19.196 16.2406 19.2455 16.2206C19.295 16.2007 19.34 16.1712 19.3781 16.1339C19.4162 16.0965 19.4466 16.0521 19.4675 16.003C19.4884 15.9539 19.4995 15.9012 19.5 15.8478V15.8438C19.4994 15.3757 19.3375 14.9221 19.0415 14.5595C18.7455 14.1969 18.3335 13.9474 17.875 13.8531C17.8334 12.3454 17.2148 11.0835 16.0718 10.1969C15.0145 9.37219 13.6018 8.9375 11.9844 8.9375H8.32813C4.86383 8.9375 2.51723 10.9063 2.4375 13.8531C1.979 13.9474 1.56703 14.1969 1.27102 14.5595C0.975012 14.9221 0.813073 15.3757 0.812501 15.8438C0.812501 15.9515 0.855302 16.0548 0.931489 16.131C1.00768 16.2072 1.11101 16.25 1.21875 16.25H5.51942ZM9.44227 17.875C9.3889 17.875 9.33605 17.8854 9.28673 17.9058C9.23742 17.9262 9.1926 17.9561 9.15484 17.9938L8.03055 19.1186C7.84009 19.309 7.58181 19.416 7.3125 19.416C7.04319 19.416 6.78491 19.309 6.59445 19.1186L5.47016 17.9938C5.4324 17.9561 5.38758 17.9262 5.33827 17.9058C5.28895 17.8854 5.2361 17.875 5.18274 17.875H1.65852C1.46766 17.8742 1.28265 17.9408 1.13619 18.0632C0.989736 18.1856 0.89127 18.3558 0.858204 18.5438C0.827645 18.7255 0.812357 18.9095 0.812501 19.0938C0.812501 20.6471 1.88551 21.9126 3.21242 21.9375C3.33582 22.7053 3.63442 23.399 4.08383 23.9418C4.74856 24.7447 5.71492 25.1875 6.80469 25.1875H13.5078C14.5976 25.1875 15.5639 24.7447 16.2287 23.9408C16.6781 23.398 16.9767 22.7043 17.1001 21.9365C18.427 21.9126 19.5 20.6471 19.5 19.0927C19.5001 18.9085 19.4849 18.7245 19.4543 18.5428C19.421 18.355 19.3225 18.185 19.176 18.0628C19.0296 17.9406 18.8447 17.8741 18.654 17.875H9.44227Z" fill="#773607" fill-opacity="0.77"/>
</g>
<defs>
<clipPath id="clip0_26_560">
<rect width="26" height="26" fill="white"/>
</clipPath>
</defs>
</svg>
