<svg width="24" height="24" viewBox="0 0 24 24" fill="none" xmlns="http://www.w3.org/2000/svg">
<path d="M11.3882 12.4401C11.4524 12.1613 11.597 11.9074 11.8042 11.7101C11.8683 11.6468 11.9427 11.5947 12.0242 11.5561L12.0322 11.5541C12.2911 11.5983 12.557 11.5389 12.7724 11.3887C12.9879 11.2385 13.1356 11.0096 13.1837 10.7514C13.2317 10.4932 13.1763 10.2265 13.0293 10.0088C12.8824 9.79113 12.6557 9.64002 12.3982 9.58811C11.5942 9.41811 10.8782 9.83611 10.4382 10.2481C9.93049 10.7263 9.57913 11.3467 9.43022 12.0281C9.37558 12.2878 9.42633 12.5585 9.57129 12.7807C9.71626 13.0029 9.94357 13.1585 10.2032 13.2131C10.4629 13.2677 10.7336 13.217 10.9558 13.072C11.178 12.9271 11.3336 12.6998 11.3882 12.4401ZM3.04422 7.66011C-0.529783 10.5081 -0.623783 15.3321 1.05222 18.5821C2.17822 20.7661 4.34222 22.7101 7.59022 22.7101C8.39622 22.7101 8.97622 22.6901 9.43422 22.6701C10.8202 22.6181 11.0742 22.6101 13.0022 23.3881C15.5702 24.4241 18.2982 24.1161 20.5802 22.6781C22.6322 21.3841 23.8102 18.3781 23.6102 15.9381C23.5042 14.6461 23.6202 14.1181 23.7522 13.5181C23.9344 12.7444 24.0177 11.9508 24.0002 11.1561C24.0002 8.52411 23.2202 6.84811 22.4402 5.47611C21.6622 4.10411 20.8162 2.74611 18.4142 1.21611C16.4442 -0.0398867 12.7082 -0.641887 9.75422 0.996113C7.59022 2.20011 6.50822 3.29211 5.20822 5.47611C4.71622 6.30211 4.24622 6.70411 3.04422 7.66011ZM19.2002 12.6001C19.2002 14.3505 18.5049 16.0293 17.2671 17.267C16.0294 18.5048 14.3506 19.2001 12.6002 19.2001C10.8498 19.2001 9.17105 18.5048 7.93331 17.267C6.69557 16.0293 6.00022 14.3505 6.00022 12.6001C6.00022 10.8497 6.69557 9.17095 7.93331 7.93321C9.17105 6.69547 10.8498 6.00011 12.6002 6.00011C14.3506 6.00011 16.0294 6.69547 17.2671 7.93321C18.5049 9.17095 19.2002 10.8497 19.2002 12.6001Z" fill="#CBCE30"/>
</svg>
