<svg width="26" height="26" viewBox="0 0 26 26" fill="none" xmlns="http://www.w3.org/2000/svg">
<path d="M24.2105 14.5758C25.7668 11.611 22.6034 9.555 18.4673 8.54669C18.7785 7.83941 18.8687 6.91356 17.9912 6.02956C16.8659 4.89816 17.6138 3.25 17.6138 3.25C17.6138 3.25 15.2519 5.42872 16.7432 6.93103C17.2933 7.48475 17.5797 7.97103 17.7166 8.37769C16.5748 8.14234 15.4186 7.98301 14.2558 7.90075C14.6031 6.95662 14.6368 5.77078 13.5424 4.63531C12.0441 3.07897 13.0419 0.8125 13.0419 0.8125C13.0419 0.8125 9.89222 3.80819 11.8808 5.87356C12.6068 6.62675 12.9891 7.28975 13.1743 7.8455C11.9418 7.80853 10.7555 7.86256 9.70169 8.01003C9.82722 7.40269 9.72241 6.70434 9.0525 6.02997C7.92719 4.89856 8.6755 3.25 8.6755 3.25C8.6755 3.25 6.31316 5.42872 7.80491 6.93103C8.2721 7.40147 8.54591 7.82153 8.70313 8.18756C8.52519 8.22656 8.35253 8.26881 8.18638 8.31472C3.05056 7.83412 0.810503 8.89525 1.83385 10.9769C0.0479719 12.7628 0.719097 14.8009 2.95388 16.3605C4.11982 21.1628 4.42003 25.1875 13.2015 25.1875C21.0373 25.1875 22.1199 21.9822 23.0905 17.8799C26.0025 17.3002 25.3821 15.9043 24.2105 14.5758ZM23.4845 14.0961C22.5091 16.1761 18.276 17.7418 13.2015 17.7418C8.12747 17.7418 3.89435 16.1761 2.91853 14.0961C2.89782 14.0343 2.87791 13.9701 2.858 13.9076C3.32275 12.7286 4.83319 11.7057 6.95463 11.0208C6.45616 11.5026 6.35256 12.222 7.66435 12.4743C8.03972 12.5466 9.07038 12.2964 8.61985 11.0175C8.55688 10.8387 8.4541 10.7189 8.32775 10.6466C9.78538 10.3131 11.44 10.1209 13.2015 10.1209C13.399 10.1209 13.5928 10.1278 13.7873 10.1323C12.7709 10.493 11.9418 11.6045 14.0173 11.9324C14.4755 12.0047 15.7337 11.7544 15.1836 10.4756C15.1356 10.3616 15.0585 10.2621 14.9602 10.1871C16.9049 10.3301 18.6668 10.7047 20.0911 11.2446C18.8387 11.1747 17.4493 11.9466 19.6743 13.0333C20.1517 13.2665 21.602 13.4806 21.4025 12.0685C21.3881 11.9664 21.3521 11.8687 21.2969 11.7817C22.4356 12.3817 23.2298 13.1093 23.5447 13.9076L23.4845 14.0961Z" fill="#258CAC"/>
</svg>
