<svg width="19" height="22" viewBox="0 0 19 22" fill="none" xmlns="http://www.w3.org/2000/svg">
<path d="M0.200195 3.14278C0.200195 1.71928 1.3637 0.514181 2.8392 0.605181C8.6203 0.961381 13.6903 2.90618 17.6618 6.69828C18.7889 7.77338 18.5666 9.52968 17.3979 10.4267L17.0807 10.6711L16.5646 10.0978L16.5555 10.0887C12.7387 6.16918 7.20719 3.86818 1.33249 3.86818H0.200195V3.14278ZM0.200195 5.16688V19.45C0.200195 21.0516 2.028 21.9694 3.3137 21.0113L5.4041 19.4539V19.4565C5.4041 19.8013 5.54106 20.1319 5.78486 20.3757C6.02865 20.6195 6.35931 20.7565 6.7041 20.7565C7.04888 20.7565 7.37954 20.6195 7.62333 20.3757C7.86713 20.1319 8.0041 19.8013 8.0041 19.4565V16.8539C8.00541 16.689 8.06931 16.5309 8.18285 16.4114C8.29638 16.2919 8.45109 16.22 8.61564 16.2102C8.78019 16.2005 8.9423 16.2536 9.06915 16.3589C9.196 16.4641 9.27813 16.6137 9.29889 16.7772V17.5052C9.29889 17.85 9.43586 18.1806 9.67966 18.4244C9.92345 18.6682 10.2541 18.8052 10.5989 18.8052C10.9437 18.8052 11.2743 18.6682 11.5181 18.4244C11.7619 18.1806 11.8989 17.85 11.8989 17.5052V14.5958C12.9714 13.8093 14.6107 12.5626 16.0459 11.4654L15.6156 10.9857C12.0549 7.33528 6.86919 5.16688 1.3312 5.16688H0.200195ZM5.7226 8.73148C5.72251 8.85909 5.69729 8.98544 5.64838 9.1033C5.59946 9.22117 5.52781 9.32825 5.43752 9.41842C5.34722 9.5086 5.24005 9.5801 5.12212 9.62886C5.00419 9.67762 4.87781 9.70267 4.7502 9.70258C4.62258 9.7025 4.49624 9.67728 4.37837 9.62836C4.26051 9.57945 4.15343 9.5078 4.06325 9.4175C3.97308 9.32721 3.90157 9.22003 3.85282 9.1021C3.80406 8.98417 3.77901 8.85779 3.77909 8.73018C3.77909 8.47246 3.88148 8.22529 4.06371 8.04305C4.24595 7.86081 4.49312 7.75843 4.75085 7.75843C5.00857 7.75843 5.25574 7.86081 5.43798 8.04305C5.62021 8.22529 5.7226 8.47246 5.7226 8.73018M9.59009 11.3302C9.59009 11.5879 9.48771 11.8351 9.30548 12.0173C9.12324 12.1995 8.87607 12.3019 8.61835 12.3019C8.36062 12.3019 8.11345 12.1995 7.93121 12.0173C7.74898 11.8351 7.64659 11.5879 7.64659 11.3302C7.64659 11.0725 7.74898 10.8253 7.93121 10.6431C8.11345 10.4608 8.36062 10.3584 8.61835 10.3584C8.87607 10.3584 9.12324 10.4608 9.30548 10.6431C9.48771 10.8253 9.59009 11.0725 9.59009 11.3302ZM5.73299 14.5828C5.73299 14.8419 5.63007 15.0904 5.44685 15.2736C5.26364 15.4568 5.01515 15.5597 4.75604 15.5597C4.49694 15.5597 4.24845 15.4568 4.06524 15.2736C3.88202 15.0904 3.77909 14.8419 3.77909 14.5828C3.77909 14.3237 3.88202 14.0752 4.06524 13.892C4.24845 13.7088 4.49694 13.6058 4.75604 13.6058C5.01515 13.6058 5.26364 13.7088 5.44685 13.892C5.63007 14.0752 5.73299 14.3237 5.73299 14.5828Z" fill="#B08C0F"/>
</svg>
