<svg width="18" height="12" viewBox="0 0 18 12" fill="none" xmlns="http://www.w3.org/2000/svg">
<path d="M17.4116 0.493163C17.4036 0.370842 17.3453 0.255401 17.2478 0.168759C17.1503 0.0821176 17.0205 0.0303066 16.8828 0.0231632C13.2435 -0.164337 10.3213 0.819413 9.0655 2.66191C8.23582 3.88004 8.23722 5.35941 9.05425 6.77066C8.5892 7.26276 8.24933 7.83841 8.05792 8.45816L6.91394 7.43754C7.46378 6.41691 7.44269 5.35316 6.84363 4.46941C5.9155 3.10754 3.77308 2.37754 1.11316 2.51629C0.975547 2.52343 0.845677 2.57524 0.748205 2.66188C0.650733 2.74853 0.592446 2.86397 0.584409 2.98629C0.427612 5.35066 1.24957 7.25504 2.78168 8.08004C3.28727 8.35461 3.86825 8.49994 4.46074 8.50004C5.03582 8.49374 5.60196 8.37263 6.1173 8.14566L7.87511 9.70816V11.5C7.87511 11.6326 7.93438 11.7598 8.03987 11.8536C8.14535 11.9474 8.28843 12 8.43761 12C8.5868 12 8.72987 11.9474 8.83536 11.8536C8.94085 11.7598 9.00011 11.6326 9.00011 11.5V9.65691C8.99761 8.86147 9.30213 8.08934 9.86285 7.46941C10.5863 7.8055 11.3887 7.98535 12.205 7.99441C12.9941 7.99668 13.7686 7.80504 14.443 7.44066C16.5158 6.32566 17.6253 3.72816 17.4116 0.493163ZM3.36175 7.22504C2.28316 6.64441 1.67285 5.27004 1.68761 3.50004C3.67886 3.48504 5.22503 4.02941 5.87824 4.98816C6.21925 5.48816 6.2748 6.07129 6.05121 6.67191L4.33488 5.14629C4.22853 5.05648 4.08692 5.00715 3.94024 5.00882C3.79356 5.01049 3.65342 5.06302 3.5497 5.15522C3.44597 5.24742 3.38687 5.372 3.38499 5.50238C3.38311 5.63276 3.43861 5.75863 3.53964 5.85316L5.25597 7.37879C4.58027 7.57754 3.92496 7.52816 3.36175 7.22504ZM13.8601 6.58629C12.9179 7.09316 11.8105 7.13191 10.6855 6.71129L14.4606 3.35504C14.5616 3.26051 14.6171 3.13463 14.6152 3.00425C14.6134 2.87387 14.5543 2.7493 14.4505 2.6571C14.3468 2.5649 14.2067 2.51236 14.06 2.51069C13.9133 2.50902 13.7717 2.55835 13.6653 2.64816L9.88956 6.00004C9.41425 5.00004 9.45714 4.01504 10.0302 3.17816C11.0103 1.74066 13.3349 0.939413 16.3112 1.00129C16.3787 3.64629 15.4787 5.71504 13.8601 6.58629Z" fill="#0D8754"/>
</svg>
