<svg width="20" height="18" viewBox="0 0 20 18" fill="none" xmlns="http://www.w3.org/2000/svg">
<path fill-rule="evenodd" clip-rule="evenodd" d="M8.59197 1.0086C8.75602 0.811792 8.9595 0.651556 9.18929 0.538225C9.41907 0.424895 9.67006 0.360986 9.92606 0.350622C10.1821 0.340257 10.4374 0.383667 10.6756 0.478051C10.9138 0.572435 11.1296 0.715697 11.309 0.898598L11.408 1.0086L15.0123 5.33343H17.7486C17.9409 5.33302 18.1312 5.37326 18.307 5.45149C18.4827 5.52973 18.6399 5.64421 18.7684 5.78744C18.8968 5.93066 18.9935 6.0994 19.0522 6.2826C19.1109 6.4658 19.1302 6.65933 19.1089 6.85051L19.0246 7.55268L18.9329 8.23102L18.8577 8.73885L18.7706 9.28427L18.6716 9.85718L18.5598 10.4512L18.4351 11.0571C18.3691 11.3627 18.2983 11.6679 18.2225 11.9728C18.0196 12.7777 17.7648 13.5686 17.4598 14.3406L17.2572 14.8356L17.0611 15.2829L16.8759 15.6808L16.7897 15.8586L16.5615 16.3078C16.2681 16.8669 15.7145 17.1969 15.1287 17.2446L14.9821 17.2501H5.00872C4.68826 17.2525 4.37316 17.1678 4.09708 17.0051C3.821 16.8423 3.59431 16.6076 3.44122 16.3261L3.22856 15.9136L3.06356 15.5744L2.97647 15.3865L2.79314 14.9749C2.3745 14.0028 2.03484 12.9986 1.77747 11.9719C1.72771 11.7726 1.68004 11.5728 1.63447 11.3724L1.50431 10.7784L1.38789 10.1973L1.28522 9.63535L1.19356 9.09727L1.11381 8.58943L1.04597 8.11918L0.963475 7.4931L0.902975 6.98343L0.887391 6.84318C0.86843 6.66309 0.885469 6.48103 0.937518 6.30758C0.989567 6.13414 1.07559 5.97278 1.19057 5.83289C1.30556 5.69299 1.44721 5.57736 1.6073 5.49272C1.76739 5.40807 1.9427 5.35611 2.12306 5.33985L2.24772 5.33343H4.98764L8.59197 1.0086ZM8.13089 9.66193C8.06888 9.44565 7.92949 9.25973 7.73927 9.13957C7.54905 9.01941 7.32127 8.97341 7.09933 9.01033C6.87738 9.04724 6.67676 9.1645 6.53568 9.33976C6.39459 9.51502 6.32289 9.73606 6.33423 9.96076L6.34614 10.0671L6.80447 12.8171L6.82739 12.9216C6.8894 13.1379 7.02879 13.3238 7.21901 13.444C7.40924 13.5641 7.63701 13.6101 7.85896 13.5732C8.0809 13.5363 8.28152 13.419 8.42261 13.2438C8.56369 13.0685 8.6354 12.8475 8.62406 12.6228L8.61214 12.5164L8.15381 9.76643L8.13089 9.66193ZM12.9003 9.01293C12.6788 8.97598 12.4513 9.02165 12.2612 9.14129C12.0711 9.26093 11.9316 9.4462 11.8691 9.66193L11.8461 9.76643L11.3878 12.5164C11.3495 12.7471 11.4008 12.9836 11.5312 13.1777C11.6616 13.3717 11.8612 13.5086 12.0892 13.5604C12.3172 13.6121 12.5563 13.5748 12.7577 13.4561C12.9591 13.3373 13.1075 13.1461 13.1726 12.9216L13.1955 12.8171L13.6538 10.0671C13.6936 9.8274 13.6365 9.58173 13.4952 9.38406C13.354 9.18639 13.14 9.05291 12.9003 9.01293ZM9.99998 2.18193L7.37372 5.33343H12.6262L9.99998 2.18193Z" fill="white"/>
</svg>
