<svg width="18" height="22" viewBox="0 0 18 22" fill="none" xmlns="http://www.w3.org/2000/svg">
<path d="M11.8067 1.86629C11.8899 1.84108 11.9671 1.79945 12.0339 1.74385C12.1007 1.68825 12.1557 1.61982 12.1956 1.54261C12.2355 1.46539 12.2595 1.38096 12.2662 1.29431C12.2729 1.20765 12.2622 1.12053 12.2346 1.0381C12.207 0.955678 12.1632 0.879615 12.1057 0.814417C12.0483 0.749219 11.9783 0.696209 11.9 0.658522C11.8217 0.620836 11.7366 0.599239 11.6498 0.595009C11.563 0.590778 11.4762 0.604001 11.3946 0.633894C10.1765 1.03949 9.41598 2.04049 8.96878 3.11299C8.90845 3.25785 8.85338 3.40485 8.80368 3.55369C8.56012 3.09239 8.24853 2.67037 7.87938 2.30179C7.37925 1.80167 6.78234 1.40882 6.12518 1.1473C5.46801 0.885774 4.7644 0.761062 4.05738 0.780794C3.30338 0.801594 2.70148 1.40479 2.68068 2.15749C2.66095 2.86451 2.78566 3.56812 3.04719 4.22529C3.30871 4.88245 3.70156 5.47936 4.20168 5.97949L4.24198 6.01849C3.14979 6.25465 2.16273 6.83636 1.42702 7.67743C0.691321 8.5185 0.246122 9.57419 0.157384 10.6881L0.149584 10.7843C-0.0220397 12.9256 0.434237 15.0706 1.46258 16.9567L1.93058 17.8121C1.94272 17.8346 1.95658 17.8563 1.97218 17.8771L3.27218 19.6997C3.56682 20.1123 3.94782 20.4558 4.38867 20.7063C4.82952 20.9567 5.31964 21.1081 5.82494 21.1499C6.33024 21.1918 6.83858 21.123 7.31461 20.9484C7.79064 20.7738 8.22292 20.4977 8.58138 20.1391C8.63643 20.084 8.70179 20.0403 8.77373 20.0105C8.84566 19.9807 8.92277 19.9654 9.00063 19.9654C9.0785 19.9654 9.1556 19.9807 9.22754 20.0105C9.29947 20.0403 9.36483 20.084 9.41988 20.1391C9.77835 20.4977 10.2106 20.7738 10.6867 20.9484C11.1627 21.123 11.671 21.1918 12.1763 21.1499C12.6816 21.1081 13.1717 20.9567 13.6126 20.7063C14.0534 20.4558 14.4344 20.1123 14.7291 19.6997L16.0291 17.8784L16.0707 17.8121L16.5374 16.9567C17.5657 15.0706 18.022 12.9256 17.8504 10.7843L17.8439 10.6881C17.7864 9.97021 17.5803 9.27211 17.2389 8.63802C16.8974 8.00393 16.428 7.44769 15.8603 7.00453C15.2926 6.56138 14.639 6.24097 13.941 6.06363C13.243 5.88628 12.5158 5.85586 11.8054 5.97429L9.65128 6.33309C9.66428 5.44779 9.82028 4.45199 10.17 3.61219C10.534 2.73469 11.0748 2.11069 11.8054 1.86629M4.98038 9.66629C4.7808 9.7294 4.59569 9.83138 4.43571 9.96637C4.27574 10.1014 4.14406 10.2667 4.04828 10.4528C3.80778 10.9052 3.64268 11.6514 3.79478 12.8695C3.81184 13.0384 3.76218 13.2072 3.6564 13.3399C3.55062 13.4727 3.39711 13.5588 3.2287 13.5798C3.06028 13.6009 2.89031 13.5552 2.75511 13.4526C2.61992 13.35 2.53022 13.1986 2.50518 13.0307C2.33228 11.6475 2.49218 10.6062 2.90168 9.84049C3.31768 9.06049 3.95078 8.63929 4.56958 8.43259C4.73318 8.37812 4.91172 8.39086 5.06592 8.46803C5.22012 8.54519 5.33736 8.68045 5.39183 8.84404C5.44631 9.00764 5.43356 9.18618 5.3564 9.34038C5.27924 9.49459 5.14398 9.61182 4.98038 9.66629Z" fill="#C51B1B"/>
</svg>
